# xmcd
#
# Track frame offsets: 
#        182
#        10607
#        20157
#        30667
#        45632
#        58565
#        72515
#        86487
#        98305
#        116590
#        148932
#        164262
#        192572
#        203372
#        213137
#        230700
#        242702
#        251907
#        261127
#        272267
#        282172
#        294017
#
# Disc length: 4077 seconds
#
# Revision: 2
# Processed by: cddbd v1.5.2PL0 Copyright (c) Steve Scherf et al.
# Submitted via: ExactAudioCopy v0.95b2
#
DISCID=330feb16
DTITLE=Buddy Guy - The Complete Chess Studio Recordings Disc 1
DYEAR=1900
DGENRE=Blues
TTITLE0=First Time I Met The Blues
TTITLE1=Slop Around
TTITLE2=I Got My Eyes On You
TTITLE3=Broken Hearted Blues
TTITLE4=Let Me Love You Baby
TTITLE5=I Got A Strange Feeling
TTITLE6=Gully Hully
TTITLE7=Ten Years Ago
TTITLE8=Watch Yourself
TTITLE9=Stone Crazy
TTITLE10=Skippin'
TTITLE11=I Found A True Love
TTITLE12=Hard But It's Fair
TTITLE13=Baby (Baby, Baby, Baby)
TTITLE14=When My Left Eye Jumps
TTITLE15=That's It
TTITLE16=The Treasure Untold
TTITLE17=American Bandstand (aka American Bandstand Thing)
TTITLE18=No Lie
TTITLE19=$100 Bill
TTITLE20=My Love Is Real
TTITLE21=Buddy's Boogie
EXTD=
EXTT0=
EXTT1=
EXTT2=
EXTT3=
EXTT4=
EXTT5=
EXTT6=
EXTT7=
EXTT8=
EXTT9=
EXTT10=
EXTT11=
EXTT12=
EXTT13=
EXTT14=
EXTT15=
EXTT16=
EXTT17=
EXTT18=
EXTT19=
EXTT20=
EXTT21=
PLAYORDER=
